<svg width="178" height="36" viewBox="0 0 178 36" fill="none" xmlns="http://www.w3.org/2000/svg">
<path d="M33.5586 0.30024V2.60133H39.8413V20.0096H42.2945V2.60133H48.5772V0.30024H33.5586Z" fill="#2FA5B4"/>
<path d="M62.7762 0.30024V2.60133H52.8037V8.40407H62.2776V10.8052H52.8037V17.6084H62.7762V20.0096H50.3105V0.30024H62.7762Z" fill="#2FA5B4"/>
<path d="M78.5337 14.0067L78.434 14.3069C77.4367 16.808 75.8411 17.9086 73.348 17.9086C68.7606 17.9086 67.165 13.7066 67.165 10.2049C67.165 6.70327 68.7606 2.40123 73.2483 2.40123C74.4113 2.29297 75.5744 2.60707 76.526 3.28641C77.4777 3.96575 78.1547 4.9652 78.434 6.10298L78.5337 6.40313H80.9271L80.8274 5.80284C80.1293 2.20114 77.337 9.91821e-05 73.348 9.91821e-05C67.3645 9.91821e-05 64.6719 5.30261 64.6719 10.1049C64.6719 16.1077 68.1623 20.1096 73.348 20.1096C75.0502 20.197 76.7294 19.6849 78.0951 18.6619C79.4609 17.6388 80.4273 16.1692 80.8274 14.507L81.0268 13.8066L78.5337 14.0067Z" fill="#2FA5B4"/>
<path d="M96.3846 0.30024V8.40407H86.1727V0.30024H83.7793V20.0096H86.2724V10.8052H96.4444V20.0096H98.9376V0.30024H96.3846Z" fill="#2FA5B4"/>
<path d="M115.234 0.30024L111.344 10.5051C111.145 11.0053 110.946 11.6056 110.746 12.1058C110.148 13.7066 109.549 15.3073 109.15 16.5079C108.652 15.1072 107.954 13.2063 107.355 11.4055L103.267 0.400287H100.674L107.954 20.1096H110.347L117.926 0.400287H115.234V0.30024Z" fill="#2FA5B4"/>
<path d="M127.499 9.91821e-05C122.114 9.91821e-05 118.523 4.10204 118.523 10.1049C118.523 16.1077 122.114 20.2097 127.299 20.2097C133.482 20.2097 136.275 15.1072 136.275 10.0048C136.275 4.00199 132.684 9.91821e-05 127.499 9.91821e-05ZM133.682 10.0048C133.682 11.8057 133.183 17.9086 127.399 17.9086C123.011 17.9086 121.116 13.8066 121.116 10.1049C121.116 6.60322 122.812 2.40123 127.499 2.40123C131.787 2.40123 133.682 6.20303 133.682 10.0048Z" fill="#2FA5B4"/>
<path d="M147.245 9.91821e-05C141.86 9.91821e-05 138.27 4.10204 138.27 10.1049C138.27 16.1077 141.86 20.2097 147.045 20.2097C153.228 20.2097 156.021 15.1072 156.021 10.0048C156.021 4.00199 152.53 9.91821e-05 147.245 9.91821e-05ZM153.428 10.0048C153.428 11.8057 152.929 17.9086 147.145 17.9086C142.757 17.9086 140.862 13.8066 140.862 10.1049C140.862 6.60322 142.558 2.40123 147.245 2.40123C151.533 2.40123 153.428 6.20303 153.428 10.0048Z" fill="#2FA5B4"/>
<path d="M156.221 0.30024V2.60133H162.503V20.0096H164.957V2.60133H171.239V0.30024H156.221Z" fill="#2FA5B4"/>
<path d="M33.8568 17.6885C34.0358 20.0249 33.7316 22.3733 32.9633 24.5863C32.195 26.7993 30.9792 28.8291 29.392 30.5484C27.8049 32.2677 25.8808 33.6395 23.7403 34.5776C21.5998 35.5157 19.2892 36 16.9533 36C14.6175 36 12.3069 35.5157 10.1664 34.5776C8.02591 33.6395 6.10175 32.2677 4.51462 30.5484C2.9275 28.8291 1.71165 26.7993 0.943338 24.5863C0.175031 22.3733 -0.129154 20.0249 0.0498642 17.6885C0.0391355 16.1671 0.240537 14.6517 0.648217 13.1863H9.12488V18.1887C9.12104 19.6295 9.49967 21.0453 10.2219 22.2906C10.9602 23.5414 12.0107 24.5775 13.2698 25.2968C14.5289 26.0161 15.9532 26.3938 17.4021 26.3926C18.4891 26.4238 19.5711 26.2337 20.5829 25.8338C21.5946 25.4338 22.5151 24.8323 23.2887 24.0656C24.0622 23.2989 24.6729 22.3828 25.0838 21.3727C25.4947 20.3626 25.6973 19.2795 25.6793 18.1887H21.1917C20.4936 20.2897 18.9977 21.6903 17.3024 21.5903C16.596 21.5473 15.9151 21.3098 15.3345 20.9038C14.7539 20.4978 14.2961 19.9392 14.0114 19.2892C13.9117 18.9891 13.9117 13.1863 13.9117 13.1863H19.1972L20.4936 10.385L20.693 9.88477L21.3911 8.38406H14.0114V1.00057C14.9964 0.801689 15.9985 0.701151 17.0032 0.700424C21.4822 0.726857 25.7688 2.53043 28.9266 5.7172C32.0844 8.90397 33.8569 13.2149 33.8568 17.7085V17.6885Z" fill="url(#paint0_linear_396_97)"/>
<path d="M44.5268 30.5145C44.5268 31.7151 43.4298 32.5155 42.0337 32.5155C41.296 32.4977 40.5751 32.2911 39.9395 31.9152L40.0392 30.4145H40.6375L40.837 31.615C41.1606 31.8317 41.5455 31.937 41.934 31.9152C42.9312 31.9152 43.6293 31.4149 43.6293 30.6146C43.6293 29.9142 43.2304 29.6141 42.2331 29.2139L41.934 29.1139C40.837 28.7137 40.1389 28.1134 40.1389 27.0129C40.1389 25.9123 41.1362 25.0119 42.5323 25.0119C42.8404 24.9951 43.1487 25.0395 43.4396 25.1425C43.7306 25.2455 43.9984 25.4051 44.2276 25.6122L44.1279 27.0129H43.5296L43.3301 25.8123C43.064 25.6412 42.7459 25.5703 42.4326 25.6122C41.6348 25.6122 40.9367 26.0124 40.9367 26.8128C40.9367 27.6131 41.3356 27.9133 42.1334 28.2134L42.5323 28.4135C44.0282 28.8137 44.5268 29.514 44.5268 30.5145Z" fill="#1C6368"/>
<path d="M60.2433 29.414C60.2566 29.8082 60.1924 30.2012 60.0542 30.5705C59.916 30.9397 59.7067 31.2781 59.4381 31.5661C59.1695 31.8541 58.8469 32.0863 58.4889 32.2492C58.1308 32.4121 57.7442 32.5025 57.3513 32.5155C56.9515 32.5256 56.5541 32.4508 56.1852 32.2958C55.8164 32.1407 55.4844 31.9091 55.2112 31.6161C54.938 31.3231 54.7297 30.9754 54.6001 30.5959C54.4705 30.2163 54.4225 29.8135 54.4592 29.414C54.4459 29.0198 54.5102 28.6268 54.6484 28.2576C54.7865 27.8883 54.9959 27.5499 55.2645 27.2619C55.5331 26.9739 55.8556 26.7418 56.2137 26.5789C56.5718 26.416 56.9583 26.3255 57.3513 26.3125C57.7489 26.3101 58.1427 26.3902 58.5079 26.5479C58.8732 26.7055 59.2019 26.9373 59.4736 27.2286C59.7452 27.5199 59.9538 27.8644 60.0863 28.2405C60.2188 28.6166 60.2722 29.0162 60.2433 29.414ZM57.451 32.0152C58.7474 32.0152 59.2461 30.7146 59.2461 29.5141C59.2461 28.3135 58.7474 27.0129 57.451 27.0129C56.1546 27.0129 55.656 28.3135 55.656 29.5141C55.656 30.7146 56.1945 32.0152 57.4909 32.0152H57.451Z" fill="#1C6368"/>
<path d="M75.3435 30.6146L75.2437 32.3154H70.5566V31.9152L71.3544 31.8151V27.0129L70.5566 26.9128V26.5126H73.2093V26.9128L72.3118 27.0129V31.8151H74.3063L74.6055 30.6146H75.3435Z" fill="#1C6368"/>
<path d="M91.0988 26.5126V26.9128L90.301 27.0129V29.9142C90.301 31.9152 89.3037 32.5155 88.107 32.5155C87.7882 32.5517 87.4654 32.5136 87.1638 32.4041C86.8621 32.2947 86.5896 32.1169 86.3677 31.8845C86.1457 31.6522 85.9802 31.3715 85.8841 31.0645C85.7879 30.7575 85.7637 30.4323 85.8133 30.1143V27.0129L85.1152 26.9128V26.5126H87.8078V26.9128L86.8106 27.0129V29.8142C86.8106 31.3149 87.4089 31.7151 88.3064 31.7151C89.204 31.7151 89.9021 31.2149 89.9021 29.6141V27.0129L89.0045 26.9128V26.5126H91.0988Z" fill="#1C6368"/>
<path d="M106.059 28.1134H105.46L105.261 27.0129H103.965V31.8151L104.862 31.9152V32.3154H102.07V31.9152L102.967 31.8151V27.0129H101.671L101.471 28.1134H100.873L100.973 26.5126H106.059V28.1134Z" fill="#1C6368"/>
<path d="M117.727 29.2139V31.8151L118.525 31.9152V32.3154H115.932V31.9152L116.729 31.8151V27.0129L115.932 26.9128V26.5126H118.525V26.9128L117.727 27.0129V29.2139Z" fill="#1C6368"/>
<path d="M134.579 29.414C134.592 29.8082 134.528 30.2012 134.39 30.5705C134.252 30.9397 134.042 31.2781 133.774 31.5661C133.505 31.8541 133.182 32.0863 132.824 32.2492C132.466 32.4121 132.08 32.5025 131.687 32.5155C131.289 32.5179 130.895 32.4378 130.53 32.2801C130.165 32.1225 129.836 31.8907 129.564 31.5994C129.293 31.3081 129.084 30.9636 128.952 30.5875C128.819 30.2114 128.766 29.8118 128.795 29.414C128.781 29.0198 128.846 28.6268 128.984 28.2576C129.122 27.8883 129.331 27.5499 129.6 27.2619C129.869 26.9739 130.191 26.7418 130.549 26.5789C130.907 26.416 131.294 26.3255 131.687 26.3125C132.084 26.3101 132.478 26.3902 132.843 26.5479C133.209 26.7055 133.537 26.9373 133.809 27.2286C134.081 27.5199 134.289 27.8644 134.422 28.2405C134.554 28.6166 134.608 29.0162 134.579 29.414ZM131.687 32.0152C132.983 32.0152 133.482 30.7146 133.482 29.5141C133.482 28.3135 132.983 27.0129 131.687 27.0129C130.39 27.0129 129.892 28.3135 129.892 29.5141C129.892 30.7146 130.39 32.0152 131.687 32.0152Z" fill="#1C6368"/>
<path d="M150.735 26.5126V26.9128L150.037 27.0129V32.4154H149.638L145.949 27.7132V31.8151L146.946 31.9152V32.3154H144.752V31.9152L145.45 31.8151V27.0129L144.752 26.9128V26.5126H146.248L149.539 30.6146V27.0129L148.542 26.9128V26.5126H150.735Z" fill="#1C6368"/>
<path d="M164.895 30.8147C164.895 31.8151 163.998 32.5155 162.701 32.5155C162.067 32.5316 161.442 32.3574 160.906 32.0152L160.966 30.6946H161.564L161.764 31.6951C162.03 31.8662 162.348 31.9371 162.661 31.8952C163.559 31.8952 164.058 31.495 164.058 30.8947C164.058 30.2944 163.659 30.1944 162.961 29.8942L162.562 29.7942C161.564 29.394 160.966 28.8938 160.966 27.9933C160.966 27.0929 161.864 26.2925 163.06 26.2925C163.6 26.2896 164.126 26.4654 164.556 26.7928L164.456 27.9933H163.858L163.659 27.0929C163.441 26.9805 163.204 26.9125 162.961 26.8928C162.263 26.8928 161.764 27.193 161.764 27.7932C161.764 28.3935 162.163 28.5936 162.761 28.7937L163.16 28.8938C164.397 29.414 164.895 29.9142 164.895 30.8147Z" fill="#1C6368"/>
<path d="M178.001 2.10109C178.001 2.51747 177.878 2.92446 177.647 3.27039C177.416 3.61632 177.087 3.88558 176.703 4.04399C176.32 4.20241 175.898 4.24283 175.491 4.16013C175.084 4.07743 174.711 3.87533 174.419 3.57949C174.127 3.28366 173.929 2.90743 173.85 2.49857C173.772 2.08971 173.816 1.66665 173.978 1.28311C174.139 0.899572 174.411 0.572844 174.758 0.344408C175.105 0.115972 175.512 -0.00387025 175.927 9.53258e-05C176.479 0.00536931 177.006 0.229049 177.395 0.622492C177.783 1.01593 178.001 1.54732 178.001 2.10109ZM175.927 3.79189C176.263 3.79387 176.592 3.69555 176.872 3.50942C177.153 3.3233 177.371 3.05777 177.501 2.74659C177.631 2.4354 177.665 2.0926 177.6 1.76175C177.535 1.4309 177.373 1.12693 177.135 0.888463C176.898 0.65 176.595 0.487811 176.265 0.422505C175.935 0.357198 175.593 0.391722 175.283 0.521691C174.973 0.651659 174.708 0.871203 174.523 1.15243C174.337 1.43365 174.239 1.76386 174.241 2.10109C174.241 2.54952 174.419 2.97958 174.735 3.29666C175.051 3.61375 175.48 3.79189 175.927 3.79189Z" fill="#3F4040"/>
<path d="M176.186 2.33119C176.343 2.27878 176.477 2.17255 176.565 2.03105C176.624 1.93141 176.655 1.81715 176.654 1.7009C176.657 1.58132 176.626 1.46349 176.565 1.36073C176.505 1.26047 176.42 1.17741 176.319 1.11958C176.217 1.06175 176.103 1.0311 175.986 1.03058H175.049V3.20161H175.438V2.36121H175.737L176.295 3.20161H176.764L176.186 2.33119ZM175.438 2.03105V1.36073H176.026C176.11 1.36584 176.189 1.40286 176.246 1.46423C176.304 1.52561 176.335 1.60669 176.335 1.69089C176.336 1.77614 176.304 1.85841 176.247 1.9214C176.19 1.9844 176.111 2.02353 176.026 2.03105H175.438Z" fill="#3F4040"/>
<defs>
<linearGradient id="paint0_linear_396_97" x1="16.9533" y1="33.676" x2="16.9533" y2="1.44077" gradientUnits="userSpaceOnUse">
<stop stop-color="#2FA5B4"/>
<stop offset="0.4" stop-color="#4DBDC0"/>
</linearGradient>
</defs>
</svg>
